<svg version="1.1" viewBox="0.0 0.0 480.0 480.0" fill="none" stroke="none" stroke-linecap="square" stroke-miterlimit="10" xmlns:xlink="http://www.w3.org/1999/xlink" xmlns="http://www.w3.org/2000/svg"><clipPath id="p.0"><path d="m0 0l480.0 0l0 480.0l-480.0 0l0 -480.0z" clip-rule="nonzero"/></clipPath><g clip-path="url(#p.0)"><path fill="#ffffff" d="m0 0l480.0 0l0 480.0l-480.0 0z" fill-rule="evenodd"/><path fill="#0b5394" d="m1.5748032E-6 240.00352l103.732285 -207.46448l272.53546 0l103.73227 207.46448l-103.73227 207.46446l-272.53546 0z" fill-rule="evenodd"/><path stroke="#0b5394" stroke-width="3.0" stroke-linejoin="round" stroke-linecap="butt" d="m1.5748032E-6 240.00352l103.732285 -207.46448l272.53546 0l103.73227 207.46448l-103.73227 207.46446l-272.53546 0z" fill-rule="evenodd"/><path fill="#ffffff" d="m237.97043 365.39038q-28.328125 0 -54.3125 -7.578125q-25.96875 -7.59375 -41.828125 -19.75l18.5625 -41.140625q15.171875 10.78125 35.921875 17.703125q20.75 6.90625 42.0 6.90625q16.1875 0 26.140625 -3.203125q9.953125 -3.203125 14.671875 -8.9375q4.71875 -5.734375 4.71875 -13.15625q0 -9.4375 -7.421875 -15.0q-7.40625 -5.578125 -19.5625 -9.109375q-12.140625 -3.546875 -26.8125 -6.75q-14.671875 -3.203125 -29.34375 -7.921875q-14.671875 -4.734375 -26.828125 -12.15625q-12.140625 -7.421875 -19.734375 -19.5625q-7.578125 -12.140625 -7.578125 -31.03125q0 -20.234375 10.953125 -36.9375q10.96875 -16.703125 33.0625 -26.640625q22.09375 -9.953125 55.484375 -9.953125q22.265625 0 43.859375 5.234375q21.59375 5.21875 38.125 15.671875l-16.875 41.5q-16.53125 -9.453125 -33.0625 -14.0q-16.515625 -4.5625 -32.375 -4.5625q-15.859375 0 -25.984375 3.71875q-10.109375 3.703125 -14.5 9.609375q-4.375 5.90625 -4.375 13.65625q0 9.109375 7.40625 14.6875q7.421875 5.5625 19.5625 8.9375q12.15625 3.359375 26.828125 6.734375q14.671875 3.375 29.34375 7.765625q14.671875 4.390625 26.8125 11.8125q12.15625 7.40625 19.734375 19.5625q7.59375 12.140625 7.59375 30.6875q0 19.90625 -11.140625 36.4375q-11.125 16.53125 -33.21875 26.65625q-22.09375 10.109375 -55.828125 10.109375z" fill-rule="nonzero"/><path fill="#000000" fill-opacity="0.0" d="m278.1391 330.0649l142.67719 0l0 111.49606l-142.67719 0z" fill-rule="evenodd"/><path fill="#ffffff" d="m314.2562 412.0249l0 -53.203125l25.984375 0q10.03125 0 15.078125 3.8125q5.0625 3.796875 5.0625 10.015625q0 4.1875 -2.046875 7.265625q-2.046875 3.078125 -5.625 4.75q-3.578125 1.671875 -8.203125 1.671875l1.4375 -3.109375q5.015625 0 8.890625 1.640625q3.875 1.625 6.03125 4.8125q2.171875 3.1875 2.171875 7.828125q0 6.84375 -5.390625 10.6875q-5.390625 3.828125 -15.890625 3.828125l-27.5 0zm12.234375 -9.265625l14.359375 0q4.796875 0 7.265625 -1.5625q2.46875 -1.5625 2.46875 -4.984375q0 -3.34375 -2.46875 -4.96875q-2.46875 -1.640625 -7.265625 -1.640625l-15.28125 0l0 -8.96875l13.15625 0q4.484375 0 6.875 -1.546875q2.390625 -1.5625 2.390625 -4.765625q0 -3.109375 -2.390625 -4.65625q-2.390625 -1.5625 -6.875 -1.5625l-12.234375 0l0 34.65625zm45.90561 9.265625l0 -53.203125l12.3125 0l0 53.203125l-12.3125 0z" fill-rule="nonzero"/></g></svg>