<svg version="1.1" viewBox="0.0 0.0 864.0 201.6010498687664" fill="none" stroke="none" stroke-linecap="square" stroke-miterlimit="10" xmlns:xlink="http://www.w3.org/1999/xlink" xmlns="http://www.w3.org/2000/svg"><clipPath id="p.0"><path d="m0 0l864.0 0l0 201.60104l-864.0 0l0 -201.60104z" clip-rule="nonzero"/></clipPath><g clip-path="url(#p.0)"><path fill="#ffffff" d="m0 0l864.0 0l0 201.60104l-864.0 0z" fill-rule="evenodd"/><path fill="#000000" fill-opacity="0.0" d="m241.101 0.13535249l645.3228 0l0 201.98425l-645.3228 0z" fill-rule="evenodd"/><path fill="#00bdd6" d="m296.9604 155.27534q-12.359375 0 -23.65625 -3.53125q-11.296875 -3.546875 -17.937515 -9.125l6.7812653 -15.203117q6.328125 4.9687424 15.671875 8.281242q9.34375 3.3125 19.140625 3.3125q8.28125 0 13.40625 -1.796875q5.125 -1.8125 7.53125 -4.90625q2.40625 -3.09375 2.40625 -6.9999924q0 -4.828125 -3.46875 -7.765625q-3.453125 -2.9375 -8.953125 -4.671875q-5.5 -1.734375 -12.203125 -3.234375q-6.703125 -1.515625 -13.421875 -3.546875q-6.703125 -2.03125 -12.203125 -5.265625q-5.484375 -3.234375 -8.953125 -8.65625q-3.46875 -5.4375 -3.46875 -13.875q0 -8.578125 4.59375 -15.734375q4.59375 -7.15625 14.015625 -11.453125q9.421875 -4.296875 23.875 -4.296875q9.5 0 18.828125 2.421875q9.34375 2.40625 16.28125 6.921875l-6.1875 15.21875q-7.078125 -4.21875 -14.609375 -6.25q-7.53125 -2.03125 -14.453125 -2.03125q-8.140625 0 -13.1875 1.953125q-5.046875 1.953125 -7.390625 5.125q-2.328125 3.15625 -2.328125 7.234375q0 4.8125 3.390625 7.75q3.390625 2.9375 8.890625 4.59375q5.5 1.65625 12.265625 3.25q6.78125 1.578125 13.484375 3.53125q6.71875 1.953125 12.203125 5.125q5.5 3.15625 8.890625 8.59375q3.390625 5.421875 3.390625 13.703125q0 8.437492 -4.59375 15.593742q-4.59375 7.15625 -14.09375 11.453125q-9.484375 4.28125 -23.9375 4.28125zm90.54401 -0.453125q-13.265625 0 -20.5 -6.84375q-7.21875 -6.859375 -7.21875 -20.265617l0 -72.171875l18.828125 0l0 71.71875q0 5.7187424 2.9375 8.890617q2.9375 3.15625 8.203125 3.15625q6.328125 0 10.546875 -3.3125l5.28125 13.40625q-3.3125 2.71875 -8.140625 4.078125q-4.8125 1.34375 -9.9375 1.34375zm-40.984375 -66.43749l0 -15.0625l53.640625 0l0 15.0625l-53.640625 0zm121.28119 65.39062l0 -16.265625l-1.0625 -3.46875l0 -28.468742q0 -8.296875 -4.96875 -12.890625q-4.96875 -4.59375 -15.0625 -4.59375q-6.78125 0 -13.34375 2.109375q-6.546875 2.109375 -11.0625 5.875l-7.375 -13.703125q6.46875 -4.96875 15.4375 -7.453125q8.96875 -2.5 18.609375 -2.5q17.46875 0 27.03125 8.375q9.578125 8.359375 9.578125 25.828125l0 47.156242l-17.78125 0zm-25.3125 1.046875q-9.046875 0 -15.828125 -3.078125q-6.765625 -3.09375 -10.46875 -8.59375q-3.6875 -5.5 -3.6875 -12.421875q0 -6.7812424 3.234375 -12.203117q3.25 -5.421875 10.625 -8.578125q7.390625 -3.171875 19.59375 -3.171875l23.34375 0l0 12.5l-21.984375 0q-9.65625 0 -12.96875 3.09375q-3.3125 3.078125 -3.3125 7.6093674q0 5.109375 4.0625 8.125q4.078125 3.015625 11.3125 3.015625q6.921875 0 12.421875 -3.15625q5.5 -3.171875 7.90625 -9.34375l3.171875 11.296875q-2.71875 7.078125 -9.71875 11.0q-7.0 3.90625 -17.703125 3.90625zm97.479614 0q-13.265625 0 -20.5 -6.84375q-7.21875 -6.859375 -7.21875 -20.265617l0 -72.171875l18.828125 0l0 71.71875q0 5.7187424 2.9375 8.890617q2.9375 3.15625 8.203125 3.15625q6.328125 0 10.546875 -3.3125l5.28125 13.40625q-3.3125 2.71875 -8.140625 4.078125q-4.8125 1.34375 -9.9375 1.34375zm-40.984375 -66.43749l0 -15.0625l53.640625 0l0 15.0625l-53.640625 0zm74.58136 65.39062l0 -80.45312l18.828125 0l0 80.45312l-18.828125 0zm9.484375 -93.70312q-5.28125 0 -8.671875 -3.3125q-3.390625 -3.328125 -3.390625 -7.984375q0 -4.828125 3.390625 -8.0625q3.390625 -3.25 8.671875 -3.25q5.265625 0 8.65625 3.09375q3.390625 3.09375 3.390625 7.765625q0 4.96875 -3.3125 8.359375q-3.3125 3.390625 -8.734375 3.390625zm70.96149 94.74999q-12.65625 0 -22.53125 -5.34375q-9.859375 -5.34375 -15.4375 -14.6875q-5.578125 -9.343742 -5.578125 -21.234367q0 -12.0625 5.578125 -21.328125q5.578125 -9.265625 15.4375 -14.53125q9.875 -5.28125 22.53125 -5.28125q11.75 0 20.703125 4.75q8.96875 4.75 13.640625 13.9375l-14.453125 8.4375q-3.625 -5.734375 -8.828125 -8.4375q-5.1875 -2.71875 -11.21875 -2.71875q-6.921875 0 -12.5 3.015625q-5.578125 3.015625 -8.75 8.671875q-3.15625 5.640625 -3.15625 13.484375q0 7.828125 3.15625 13.484375q3.171875 5.6406174 8.75 8.656242q5.578125 3.015625 12.5 3.015625q6.03125 0 11.21875 -2.703125q5.203125 -2.71875 8.828125 -8.453117l14.453125 8.437492q-4.671875 9.046875 -13.640625 13.9375q-8.953125 4.890625 -20.703125 4.890625zm52.421936 -1.046875l0 -105.45312l49.421875 0q18.984375 0 28.921875 7.453125q9.953125 7.453125 9.953125 19.953125q0 8.4375 -3.921875 14.390625q-3.921875 5.953125 -10.484375 9.203125q-6.546875 3.234375 -14.21875 3.234375l2.703125 -5.421875q8.890625 0 15.96875 3.234375q7.078125 3.234375 11.21875 9.421875q4.15625 6.171875 4.15625 15.359375q0 13.562492 -10.40625 21.093742q-10.390625 7.53125 -30.875 7.53125l-52.4375 0zm19.59375 -15.359375l31.640625 0q10.984375 0 16.859375 -3.609375q5.890625 -3.625 5.890625 -11.609367q0 -7.84375 -5.890625 -11.53125q-5.875 -3.6875 -16.859375 -3.6875l-33.15625 0l0 -15.21875l29.234375 0q10.25 0 15.734375 -3.609375q5.5 -3.625 5.5 -10.859375q0 -7.375 -5.5 -10.984375q-5.484375 -3.625 -15.734375 -3.625l-27.71875 0l0 74.73437zm95.0556 15.359375l0 -105.45312l19.59375 0l0 105.45312l-19.59375 0z" fill-rule="nonzero"/><path fill="#00bdd6" d="m2.1197994 100.49958l47.921257 -95.842476l125.921265 0l47.92125 95.842476l-47.92125 95.842476l-125.921265 0z" fill-rule="evenodd"/><path stroke="#00bdd6" stroke-width="3.0" stroke-linejoin="round" stroke-linecap="butt" d="m2.1197994 100.49958l47.921257 -95.842476l125.921265 0l47.92125 95.842476l-47.92125 95.842476l-125.921265 0z" fill-rule="evenodd"/><path fill="#ffffff" d="m112.0138 161.40834q-13.765625 0 -26.40625 -3.6875q-12.625 -3.6875 -20.328125 -9.59375l9.015625 -20.015625q7.375 5.25 17.453125 8.609375q10.09375 3.359375 20.4375 3.359375q7.875 0 12.703125 -1.546875q4.8437424 -1.5625 7.1406174 -4.34375q2.296875 -2.796875 2.296875 -6.4062576q0 -4.59375 -3.609375 -7.296875q-3.6093674 -2.703125 -9.515617 -4.421875q-5.90625 -1.71875 -13.046875 -3.28125q-7.125 -1.5625 -14.265625 -3.859375q-7.125 -2.296875 -13.03125 -5.90625q-5.90625 -3.609375 -9.59375 -9.5q-3.6875 -5.90625 -3.6875 -15.09375q0 -9.84375 5.328125 -17.953125q5.328125 -8.125 16.0625 -12.953125q10.75 -4.84375 26.984375 -4.84375q10.828125 0 21.312492 2.546875q10.5 2.53125 18.546875 7.625l-8.203125 20.171875q-8.03125 -4.59375 -16.078125 -6.8125q-8.031242 -2.21875 -15.734367 -2.21875q-7.71875 0 -12.640625 1.8125q-4.90625 1.796875 -7.046875 4.671875q-2.125 2.875 -2.125 6.640625q0 4.421875 3.609375 7.140625q3.609375 2.703125 9.5 4.34375q5.90625 1.640625 13.03125 3.28125q7.140625 1.640625 14.281242 3.78125q7.140625 2.125 13.03125 5.734375q5.90625 3.59375 9.59375 9.5q3.703125 5.90625 3.703125 14.921875q0 9.687508 -5.421875 17.718758q-5.40625 8.03125 -16.15625 12.953125q-10.734375 4.921875 -27.140617 4.921875z" fill-rule="nonzero"/><path fill="#000000" fill-opacity="0.0" d="m123.24053 147.2529l67.685036 0l0 51.716537l-67.685036 0z" fill-rule="evenodd"/><path fill="#ffffff" d="m144.73422 181.8529l0 -18.65625l9.109375 0q3.515625 0 5.28125 1.328125q1.78125 1.328125 1.78125 3.515625q0 1.46875 -0.71875 2.546875q-0.71875 1.078125 -1.96875 1.671875q-1.25 0.578125 -2.875 0.578125l0.5 -1.09375q1.765625 0 3.125 0.578125q1.359375 0.578125 2.109375 1.703125q0.765625 1.109375 0.765625 2.734375q0 2.40625 -1.890625 3.75q-1.890625 1.34375 -5.578125 1.34375l-9.640625 0zm4.28125 -3.25l5.046875 0q1.671875 0 2.53125 -0.546875q0.875 -0.546875 0.875 -1.75q0 -1.171875 -0.875 -1.734375q-0.859375 -0.578125 -2.53125 -0.578125l-5.359375 0l0 -3.15625l4.609375 0q1.578125 0 2.40625 -0.546875q0.84375 -0.546875 0.84375 -1.65625q0 -1.09375 -0.84375 -1.640625q-0.828125 -0.546875 -2.40625 -0.546875l-4.296875 0l0 12.15625zm16.110703 3.25l0 -18.65625l4.3125 0l0 18.65625l-4.3125 0z" fill-rule="nonzero"/></g></svg>